<svg xmlns="http://www.w3.org/2000/svg" width="722" height="673.158" viewBox="0 0 722 673.158">
  <g id="グループ_1" data-name="グループ 1" transform="translate(-474 -157.842)">
    <rect id="長方形_1" data-name="長方形 1" width="722" height="673" rx="27" transform="translate(474 158)" fill="#f6c0d1"/>
    <path id="パス_1" data-name="パス 1" d="M474,705.706,741.647,596.017,906.634,420.386l80.941-86.5,99.938-99.578,43.495-23.579h26.963L1131.008,251.5l-43.495,19.4L1054.2,308.3,1019.56,333.89l-31.985,63.077L849.7,517.127l-108.051,78.89L849.7,534.738l-41.163,61.279L721.492,621.94,673.8,651.075s-49.876,29.094-67.886,33.25-58.188,21.381-58.188,21.381l-59.574,29.88Z" fill="#c67f39"/>
    <path id="パス_2" data-name="パス 2" d="M630.533,630.093V564.951l31.505-44.707,22.38-87.043V542.771s-10.191-23.526-22.38,22.18-14.96,65.142-14.96,65.142" transform="translate(1 8.353)" fill="#aa8235"/>
    <path id="パス_3" data-name="パス 3" d="M815.985,503.433h-22.77l-15.24-29.347s15.24-1.4,0-13.988S761.35,434.92,761.35,434.92V397.167l16.625-16.785,15.24,31.865h38.046V460.1Z" transform="translate(1492.999 -368.307) rotate(93)" fill="rgba(221,102,207,0.4)"/>
    <path id="パス_4" data-name="パス 4" d="M815.985,503.433h-22.77l-15.24-29.347s15.24-1.4,0-13.988S761.35,434.92,761.35,434.92V397.167l16.625-16.785,15.24,31.865h38.046V460.1Z" transform="translate(54.635 -51.279)" fill="rgba(221,102,207,0.4)"/>
    <path id="パス_5" data-name="パス 5" d="M815.985,503.433h-22.77l-15.24-29.347s15.24-1.4,0-13.988S761.35,434.92,761.35,434.92V397.167l16.625-16.785,15.24,31.865h38.046V460.1Z" transform="matrix(0.105, 0.995, -0.995, 0.105, 1424.555, -488.703)" fill="rgba(221,102,207,0.4)"/>
    <path id="パス_6" data-name="パス 6" d="M815.985,503.433h-22.77l-15.24-29.347s15.24-1.4,0-13.988S761.35,434.92,761.35,434.92V397.167l16.625-16.785,15.24,31.865h38.046V460.1Z" transform="translate(93.783 -92.475)" fill="rgba(221,102,207,0.4)"/>
    <path id="パス_7" data-name="パス 7" d="M815.985,503.433h-22.77l-15.24-29.347s15.24-1.4,0-13.988S761.35,434.92,761.35,434.92V397.167l16.625-16.785,15.24,31.865h38.046V460.1Z" transform="translate(163.694 -154)" fill="rgba(221,102,207,0.4)"/>
    <path id="パス_8" data-name="パス 8" d="M815.985,503.433h-22.77l-15.24-29.347s15.24-1.4,0-13.988S761.35,434.92,761.35,434.92V397.167l16.625-16.785,15.24,31.865h38.046V460.1Z" transform="matrix(0.719, 0.695, -0.695, 0.719, 460.555, -429.488)" fill="rgba(221,102,207,0.4)"/>
    <path id="パス_9" data-name="パス 9" d="M815.985,503.433h-22.77l-15.24-29.347s15.24-1.4,0-13.988S761.35,434.92,761.35,434.92V397.167l16.625-16.785,15.24,31.865h38.046V460.1Z" transform="translate(-146.105)" fill="rgba(221,102,207,0.4)"/>
    <path id="パス_10" data-name="パス 10" d="M815.985,503.433h-22.77l-15.24-29.347s15.24-1.4,0-13.988S761.35,434.92,761.35,434.92V397.167l16.625-16.785,15.24,31.865h38.046V460.1Z" transform="matrix(0.602, 0.799, -0.799, 0.602, 594.068, -361.904)" fill="rgba(221,102,207,0.4)"/>
    <path id="パス_11" data-name="パス 11" d="M815.985,503.433h-22.77l-15.24-29.347s15.24-1.4,0-13.988S761.35,434.92,761.35,434.92V397.167l16.625-16.785,15.24,31.865h38.046V460.1Z" transform="translate(-199.728 101.511)" fill="rgba(221,102,207,0.4)"/>
    <path id="パス_12" data-name="パス 12" d="M815.985,503.433h-22.77l-15.24-29.347s15.24-1.4,0-13.988S761.35,434.92,761.35,434.92V397.167l16.625-16.785,15.24,31.865h38.046V460.1Z" transform="translate(3.739 7.311)" fill="rgba(221,102,207,0.4)"/>
    <path id="パス_13" data-name="パス 13" d="M815.985,503.433h-22.77l-15.24-29.347s15.24-1.4,0-13.988S761.35,434.92,761.35,434.92V397.167l16.625-16.785,15.24,31.865h38.046V460.1Z" transform="matrix(0.391, 0.921, -0.921, 0.391, 1168.929, -597.433)" fill="rgba(221,102,207,0.4)"/>
    <path id="パス_14" data-name="パス 14" d="M815.985,503.433h-22.77l-15.24-29.347s15.24-1.4,0-13.988S761.35,434.92,761.35,434.92V397.167l16.625-16.785,15.24,31.865h38.046V460.1Z" transform="translate(54.635 10.246)" fill="rgba(221,102,207,0.4)"/>
    <path id="パス_15" data-name="パス 15" d="M815.985,503.433h-22.77l-15.24-29.347s15.24-1.4,0-13.988S761.35,434.92,761.35,434.92V397.167l16.625-16.785,15.24,31.865h38.046V460.1Z" transform="translate(740.111 -528.337) rotate(47)" fill="rgba(221,102,207,0.4)"/>
    <path id="パス_16" data-name="パス 16" d="M815.985,503.433h-22.77l-15.24-29.347s15.24-1.4,0-13.988S761.35,434.92,761.35,434.92V397.167l16.625-16.785,15.24,31.865h38.046V460.1Z" transform="translate(198.65 -174.33)" fill="rgba(221,102,207,0.4)"/>
    <path id="パス_17" data-name="パス 17" d="M815.985,503.433h-22.77l-15.24-29.347s15.24-1.4,0-13.988S761.35,434.92,761.35,434.92V397.167l16.625-16.785,15.24,31.865h38.046V460.1Z" transform="translate(128.739 -92.475)" fill="rgba(221,102,207,0.4)"/>
    <path id="パス_18" data-name="パス 18" d="M815.985,503.433h-22.77l-15.24-29.347s15.24-1.4,0-13.988S761.35,434.92,761.35,434.92V397.167l16.625-16.785,15.24,31.865h38.046V460.1Z" transform="translate(678.999 -424.362) rotate(43)" fill="rgba(221,102,207,0.4)"/>
    <path id="パス_19" data-name="パス 19" d="M815.985,503.433h-22.77l-15.24-29.347s15.24-1.4,0-13.988S761.35,434.92,761.35,434.92V397.167l16.625-16.785,15.24,31.865h38.046V460.1Z" transform="translate(115.49 36.567)" fill="rgba(221,102,207,0.4)"/>
    <path id="パス_20" data-name="パス 20" d="M815.985,503.433h-22.77l-15.24-29.347s15.24-1.4,0-13.988S761.35,434.92,761.35,434.92V397.167l16.625-16.785,15.24,31.865h38.046V460.1Z" transform="translate(692.571 -354.058) rotate(50)" fill="rgba(221,102,207,0.4)"/>
    <path id="パス_21" data-name="パス 21" d="M815.985,503.433h-22.77l-15.24-29.347s15.24-1.4,0-13.988S761.35,434.92,761.35,434.92V397.167l16.625-16.785,15.24,31.865h38.046V460.1Z" transform="matrix(0.719, 0.695, -0.695, 0.719, 796.708, -644.66)" fill="rgba(221,102,207,0.4)"/>
    <path id="パス_22" data-name="パス 22" d="M815.985,503.433h-22.77l-15.24-29.347s15.24-1.4,0-13.988S761.35,434.92,761.35,434.92V397.167l16.625-16.785,15.24,31.865h38.046V460.1Z" transform="matrix(-0.017, 1, -1, -0.017, 1586.169, -516.259)" fill="rgba(221,102,207,0.4)"/>
    <path id="パス_23" data-name="パス 23" d="M615.245,329.1V265.977l33.1-34.929L684.7,215.662l-20.782,50.315,35.022-34.929v34.929L684.7,304.05Z" transform="translate(21.435 20.33)" fill="rgba(232,161,221,0.5)"/>
    <path id="パス_24" data-name="パス 24" d="M615.245,329.1V265.977l33.1-34.929L684.7,215.662l-20.782,50.315,35.022-34.929v34.929L684.7,304.05Z" transform="translate(175.302 -46)" fill="rgba(232,161,221,0.5)"/>
    <path id="パス_25" data-name="パス 25" d="M615.245,329.1V265.977l33.1-34.929L684.7,215.662l-20.782,50.315,35.022-34.929v34.929L684.7,304.05Z" transform="translate(-143.628 364.869) rotate(-30)" fill="rgba(232,161,221,0.5)"/>
    <path id="パス_26" data-name="パス 26" d="M615.245,329.1V265.977l33.1-34.929L684.7,215.662l-20.782,50.315,35.022-34.929v34.929L684.7,304.05Z" transform="translate(117.047 447.384)" fill="rgba(232,161,221,0.5)"/>
    <path id="パス_27" data-name="パス 27" d="M615.245,329.1V265.977l33.1-34.929L684.7,215.662l-20.782,50.315,35.022-34.929v34.929L684.7,304.05Z" transform="translate(295.131 572.73) rotate(-16)" fill="rgba(232,161,221,0.5)"/>
    <path id="パス_28" data-name="パス 28" d="M615.245,329.1V265.977l33.1-34.929L684.7,215.662l-20.782,50.315,35.022-34.929v34.929L684.7,304.05Z" transform="matrix(0.996, -0.087, 0.087, 0.996, 454.816, 269.203)" fill="rgba(232,161,221,0.5)"/>
  </g>
</svg>
